<svg id="Layer_3" enable-background="new 0 0 64 64" height="512" viewBox="0 0 64 64" width="512" xmlns="http://www.w3.org/2000/svg"><path d="m12 26h40v30h-40z" fill="#f2f2f2"/><path d="m24 38h8v18h-8z" fill="#868992"/><path d="m24 38h5v18h-5z" fill="#b3b6c2"/><path d="m32 38h8v18h-8z" fill="#868992"/><path d="m32 38h5v18h-5z" fill="#b3b6c2"/><path d="m2 56h60v6h-60z" fill="#a1a1aa"/><path d="m2 56h57v6h-57z" fill="#d7d7e2"/><path d="m20 30h24v4h-24z" fill="#b24e4a"/><path d="m20 30h21v4h-21z" fill="#ed6863"/><path d="m4 26h10v4h-10z" fill="#868992"/><path d="m4 26h7v4h-7z" fill="#b3b6c2"/><path d="m4 52h10v4h-10z" fill="#868992"/><path d="m4 52h7v4h-7z" fill="#b3b6c2"/><path d="m50 52h10v4h-10z" fill="#868992"/><path d="m50 52h7v4h-7z" fill="#b3b6c2"/><path d="m46.286 10.571-1.512 2.268c-1.436 2.154-2.341 4.608-2.652 7.16l-.122.001h-40l30-18z" fill="#5f9747"/><path d="m31.19 2.486-27.523 16.514h35.048.122c.311-2.552 1.216-5.006 2.652-7.16l1.511-2.269s-8.425-5.055-11.81-7.085z" fill="#7ec95f"/><circle cx="32" cy="12" fill="#fff" r="4"/><path d="m42.122 20c-.081.661-.122 1.329-.122 2 0 1.393.301 2.756.867 4h-.656-40.211v-6h40.444z" fill="#a1a1aa"/><path d="m38.133 22c0-.671.041-1.339.122-2h-36.255v6h36.344.656c-.566-1.244-.867-2.607-.867-4z" fill="#d7d7e2"/><path d="m6 30h6v22h-6z" fill="#a1a1aa"/><path d="m6 30h3v22h-3z" fill="#d7d7e2"/><path d="m52 30h6v22h-6z" fill="#a1a1aa"/><path d="m52 30h3v22h-3z" fill="#d7d7e2"/><path d="m52 32c2.561 0 5.017-1.017 6.828-2.828l.343-.343c1.812-1.812 2.829-4.268 2.829-6.829 0-3.26-.965-6.448-2.773-9.16l-7.227-10.84-7.227 10.84c-1.808 2.712-2.773 5.9-2.773 9.16 0 2.561 1.017 5.017 2.828 6.828l.343.343c1.812 1.812 4.268 2.829 6.829 2.829z" fill="#b24e4a"/><path d="m56.227 12.84-5.727-8.59-5.727 8.59c-1.808 2.712-2.773 5.9-2.773 9.16 0 2.561 1.017 5.017 2.828 6.828l.343.343c1.453 1.453 3.324 2.384 5.328 2.7 2.005-.316 3.875-1.247 5.328-2.7l.343-.343c1.813-1.811 2.83-4.267 2.83-6.828 0-3.26-.965-6.448-2.773-9.16z" fill="#ed6863"/><path d="m58 20h-4v-4h-4v4h-4v4h4v4h4v-4h4z" fill="#fff"/><path d="m62 63h-60c-.552 0-1-.448-1-1v-6c0-.552.448-1 1-1h60c.552 0 1 .448 1 1v6c0 .552-.448 1-1 1zm-59-2h58v-4h-58z"/><path d="m15 56h-2v-3h-8v3h-2v-4c0-.552.448-1 1-1h10c.552 0 1 .448 1 1z"/><path d="m61 56h-2v-3h-8v3h-2v-4c0-.552.448-1 1-1h10c.552 0 1 .448 1 1z"/><path d="m14 31h-10c-.552 0-1-.448-1-1v-4h2v3h8v-3h2v4c0 .552-.448 1-1 1z"/><path d="m58 53h-6c-.552 0-1-.448-1-1v-20h2v19h4v-21h2v22c0 .552-.448 1-1 1z"/><path d="m42.212 27h-40.212c-.552 0-1-.448-1-1v-6c0-.552.448-1 1-1h40.444v2h-39.444v4h39.212z"/><path d="m2.515 20.857-1.029-1.715 30-18c.317-.19.712-.19 1.029 0l14.784 8.87-1.029 1.715-14.27-8.561z"/><path d="m32 17c-2.757 0-5-2.243-5-5s2.243-5 5-5 5 2.243 5 5-2.243 5-5 5zm0-8c-1.654 0-3 1.346-3 3s1.346 3 3 3 3-1.346 3-3-1.346-3-3-3z"/><path d="m44 35h-24c-.552 0-1-.448-1-1v-4c0-.552.448-1 1-1h24c.552 0 1 .448 1 1v4c0 .552-.448 1-1 1zm-23-2h22v-2h-22z"/><path d="m41 56h-2v-17h-14v17h-2v-18c0-.552.448-1 1-1h16c.552 0 1 .448 1 1z"/><path d="m52 33c-2.847 0-5.523-1.108-7.536-3.122l-.343-.343c-2.013-2.012-3.121-4.688-3.121-7.535 0-3.47 1.017-6.829 2.941-9.715l7.227-10.84c.371-.557 1.293-.557 1.664 0l7.227 10.84c1.924 2.886 2.941 6.245 2.941 9.715 0 2.847-1.108 5.523-3.122 7.536l-.343.343c-2.012 2.013-4.688 3.121-7.535 3.121zm0-29.197-6.395 9.592c-1.704 2.556-2.605 5.532-2.605 8.605 0 2.312.9 4.486 2.536 6.122l.343.343c1.635 1.635 3.809 2.535 6.121 2.535s4.486-.9 6.122-2.536l.343-.343c1.635-1.635 2.535-3.809 2.535-6.121 0-3.073-.901-6.049-2.605-8.605z"/><path d="m31 38h2v18h-2z"/><path d="m54 29h-4c-.552 0-1-.448-1-1v-3h-3c-.552 0-1-.448-1-1v-4c0-.552.448-1 1-1h3v-3c0-.552.448-1 1-1h4c.552 0 1 .448 1 1v3h3c.552 0 1 .448 1 1v4c0 .552-.448 1-1 1h-3v3c0 .552-.448 1-1 1zm-3-2h2v-3c0-.552.448-1 1-1h3v-2h-3c-.552 0-1-.448-1-1v-3h-2v3c0 .552-.448 1-1 1h-3v2h3c.552 0 1 .448 1 1z"/><path d="m5 30h2v22h-2z"/><path d="m11 30h2v22h-2z"/></svg>