<?xml version="1.0" encoding="iso-8859-1"?>
<!-- Generator: Adobe Illustrator 18.0.0, SVG Export Plug-In . SVG Version: 6.00 Build 0)  -->
<!DOCTYPE svg PUBLIC "-//W3C//DTD SVG 1.1//EN" "http://www.w3.org/Graphics/SVG/1.1/DTD/svg11.dtd">
<svg version="1.1" id="Capa_1" xmlns="http://www.w3.org/2000/svg" xmlns:xlink="http://www.w3.org/1999/xlink" x="0px" y="0px"
	 viewBox="0 0 66.347 66.347" style="enable-background:new 0 0 66.347 66.347;" xml:space="preserve">
<path style="fill:#231F20;" d="M21.721,40.026v-1.638h0.946c0.553,0,1-0.448,1-1s-0.447-1-1-1h-0.946v-0.638h5.254
	c3.574,0,6.482-2.908,6.482-6.482V6.482C33.457,2.908,30.549,0,26.975,0H10.355C6.781,0,3.873,2.908,3.873,6.482v22.786
	c0,3.574,2.908,6.482,6.482,6.482h5.254v0.638h-0.946c-0.553,0-1,0.448-1,1s0.447,1,1,1h0.946v1.638c0,0.552,0.447,1,1,1h4.111
	C21.273,41.026,21.721,40.579,21.721,40.026z M5.873,29.269V6.482C5.873,4.011,7.884,2,10.355,2h16.619
	c2.472,0,4.482,2.011,4.482,4.482v22.786c0,2.472-2.011,4.482-4.482,4.482h-6.254h-4.111h-6.254
	C7.884,33.751,5.873,31.74,5.873,29.269z M17.609,35.751h2.111v0.638h-2.111V35.751z M17.609,39.026v-0.638h2.111v0.638H17.609z
	 M61.474,47.546h-0.279l-0.001-36.982c0.008-0.172,0.151-4.247-2.3-6.805c-1.264-1.319-2.958-1.988-5.036-1.988h-7.49
	c-2.077,0-3.771,0.668-5.035,1.987c-2.452,2.558-2.309,6.633-2.302,6.763v9.909h-0.897c-0.414,0-0.75,0.336-0.75,0.75v11.333
	c0,0.414,0.336,0.75,0.75,0.75h0.893l0.001,24.374c0.001,0.034,0.108,3.411-1.753,5.345c-0.884,0.918-2.057,1.365-3.585,1.365
	h-8.687c-1.529,0-2.702-0.446-3.586-1.365c-1.86-1.934-1.753-5.311-1.751-5.385V43.472c0-0.552-0.447-1-1-1s-1,0.448-1,1
	l0.001,14.083c-0.008,0.172-0.151,4.247,2.3,6.805c1.264,1.319,2.958,1.988,5.036,1.988h8.687c2.077,0,3.771-0.668,5.035-1.987
	c2.452-2.558,2.309-6.633,2.302-6.763V33.263h0.941c0.414,0,0.75-0.336,0.75-0.75v-2.917c1.034-0.322,1.791-1.277,1.791-2.416
	c0-1.139-0.757-2.094-1.791-2.416V21.18c0-0.414-0.336-0.75-0.75-0.75H41.03l-0.001-9.949c-0.001-0.034-0.108-3.411,1.753-5.345
	c0.884-0.918,2.057-1.365,3.585-1.365h7.49c1.529,0,2.702,0.446,3.586,1.365c1.86,1.934,1.753,5.311,1.751,5.385v37.025h-0.273
	c-0.553,0-1,0.448-1,1v6.025c0,0.552,0.447,1,1,1h2.553c0.553,0,1-0.448,1-1v-6.025C62.474,47.994,62.026,47.546,61.474,47.546z
	 M43.508,27.18c0,0.85-0.691,1.542-1.541,1.542c-0.851,0-1.542-0.691-1.542-1.542s0.691-1.542,1.542-1.542
	C42.816,25.638,43.508,26.33,43.508,27.18z M41.217,24.764c-1.034,0.322-1.792,1.277-1.792,2.416c0,1.139,0.758,2.093,1.792,2.416
	v2.167h-2.334V21.93h2.334V24.764z M60.474,53.572h-0.553v-4.025h0.553V53.572z M59.697,56.159h1v6.678l-0.5,3.197l-0.5-3.197
	V56.159z M27.332,15.18H9.998c-1.1,0-2-0.9-2-2V9.347c0-1.1,0.9-2,2-2h17.333c1.1,0,2,0.9,2,2v3.833
	C29.332,14.28,28.432,15.18,27.332,15.18z M17.055,25.145h-2.39v-3.221h2.39v-2.39h3.221v2.39h2.39v3.221h-2.39v2.39h-3.221V25.145z
	"/>
<g>
</g>
<g>
</g>
<g>
</g>
<g>
</g>
<g>
</g>
<g>
</g>
<g>
</g>
<g>
</g>
<g>
</g>
<g>
</g>
<g>
</g>
<g>
</g>
<g>
</g>
<g>
</g>
<g>
</g>
</svg>
