<?xml version="1.0" encoding="iso-8859-1"?>
<!-- Generator: Adobe Illustrator 19.0.0, SVG Export Plug-In . SVG Version: 6.00 Build 0)  -->
<svg version="1.1" id="Capa_1" xmlns="http://www.w3.org/2000/svg" xmlns:xlink="http://www.w3.org/1999/xlink" x="0px" y="0px"
	 viewBox="0 0 512 512" style="enable-background:new 0 0 512 512;" xml:space="preserve">
<rect x="17.655" y="194.207" style="fill:#A6D5FA;" width="123.586" height="317.793"/>
<rect x="141.241" style="fill:#FB4239;" width="229.517" height="512"/>
<rect x="194.207" y="335.448" style="fill:#B7E5FF;" width="123.586" height="176.552"/>
<rect x="251.586" y="335.448" style="fill:#4DAAF5;" width="8.828" height="176.552"/>
<rect x="370.759" y="194.207" style="fill:#A6D5FA;" width="123.586" height="317.793"/>
<g>
	<rect x="406.069" y="229.517" style="fill:#4DAAF5;" width="52.966" height="35.31"/>
	<rect x="406.069" y="300.138" style="fill:#4DAAF5;" width="52.966" height="35.31"/>
	<rect x="406.069" y="370.759" style="fill:#4DAAF5;" width="52.966" height="35.31"/>
	<rect x="406.069" y="441.379" style="fill:#4DAAF5;" width="52.966" height="35.31"/>
</g>
<polygon style="fill:#B7E5FF;" points="282.483,35.31 229.517,35.31 229.517,88.276 176.552,88.276 176.552,141.241 
	229.517,141.241 229.517,194.207 282.483,194.207 282.483,141.241 335.448,141.241 335.448,88.276 282.483,88.276 "/>
<g>
	<rect x="52.966" y="229.517" style="fill:#4DAAF5;" width="52.966" height="35.31"/>
	<rect x="52.966" y="300.138" style="fill:#4DAAF5;" width="52.966" height="35.31"/>
	<rect x="52.966" y="370.759" style="fill:#4DAAF5;" width="52.966" height="35.31"/>
	<rect x="52.966" y="441.379" style="fill:#4DAAF5;" width="52.966" height="35.31"/>
</g>
<g>
	<path style="fill:#A6D5FA;" d="M220.69,512h30.897v-25.476C241.682,495.466,231.38,503.958,220.69,512z"/>
	<path style="fill:#A6D5FA;" d="M260.414,478.199V512h57.379V411.366C300.932,435.491,281.715,457.878,260.414,478.199z"/>
</g>
<path style="fill:#2195F2;" d="M256,482.41c-1.474,1.368-2.922,2.763-4.414,4.114V512h8.828v-33.801
	C258.94,479.603,257.492,481.024,256,482.41z"/>
<g>
</g>
<g>
</g>
<g>
</g>
<g>
</g>
<g>
</g>
<g>
</g>
<g>
</g>
<g>
</g>
<g>
</g>
<g>
</g>
<g>
</g>
<g>
</g>
<g>
</g>
<g>
</g>
<g>
</g>
</svg>
